<?xml version="1.0" encoding="utf-8"?>
<!DOCTYPE svg PUBLIC "-//W3C//DTD SVG 1.1//EN" "http://www.w3.org/Graphics/SVG/1.1/DTD/svg11.dtd">
<svg version="1.1" id="Слой_1" xmlns="http://www.w3.org/2000/svg" xmlns:xlink="http://www.w3.org/1999/xlink" x="0px" y="0px"
	 viewBox="-44 160 841 771" enable-background="new -44 160 841 771" xml:space="preserve">
<path fill="#eeeeee"      d="
	M790.1,415.2c0-1-0.1-1.9-0.2-2.8c-1.2-26.8-5.1-49-12.4-69.5c-8.7-24.6-22.2-48.2-40.1-70.1c-34.5-42.2-83.2-73.7-140.8-91.2
	c-30.8-9.4-63.2-14.1-96.2-14.1c-91.1,0-175.3,35.6-231,97.8c-4.7,5.3-9.2,10.8-13.5,16.5c-53.6,4.5-105.1,21.7-149.5,50
	c-46.9,30-84.7,71.8-109.3,121.1c-12.3,24.5-21,51.1-25.9,78.9c-2.3,13-3.7,27-4.2,41.5c-0.8,25.4-0.7,46.1,0.4,65.4
	c3.1,55,22.5,108.3,56,154.3c32.5,44.6,76.5,81.2,127.4,103.7c40.7,18,86.2,28.7,131.7,28.7c0,0,0,0,0,0c71.3,0,141.3-24.2,197-65.8
	c37.4-28,68.4-65.4,89.4-106.9c9.6-18.9,17.1-39.5,22.4-60.8c48.1-13.7,92.9-39.4,127.3-73c42.3-41.3,66.8-92.1,70.8-146.8
	c0.5-7.3,0.7-14.5,0.7-19.9c0.1-5.6,0.1-11.2,0.1-16.5C790.4,429.8,790.4,422.4,790.1,415.2z M214.1,376.2
	c-2.3,12.2-3.6,24.5-3.8,36.9l0,0.5c-0.6,33.4-1.3,68,8.6,102.6c7.2,25.1,19.4,49.4,36.1,72.2c53,72.3,144.9,115.4,245.8,115.4
	c6.5,0,12.9-0.2,19.3-0.5c-3,5.2-6.3,10.4-9.8,15.5c-25.9,38.2-62.8,69.3-106.6,90.1c-36.5,17.3-77.9,26.5-119.5,26.5
	c-58.7,0-116.7-18.1-163.2-51.1C82.5,757,52.3,720.1,33.7,677.5c-9.2-21.1-15.4-43.8-18.3-67.5c-0.3-2.6-0.6-5.4-0.8-8.4
	c0.9-11.2,2.8-22.9,5.5-34.9C41,476.6,116,402.1,211.2,377C212.2,376.7,213.1,376.5,214.1,376.2z M296.5,525.1
	c-13.6-17.1-24-36.2-30.9-56.7c-3.3-9.7-5.7-20.2-7.2-31.2c-0.1-0.5-0.1-1-0.2-1.5c0.1-0.6,0.1-0.3,0.2-0.8
	c2.9-22.9,10.8-44.2,23.4-65.2c0.2,0,0.4,0,0.6,0c76.2,0,149.3,29.4,200.7,82.4c21,21.7,37.8,46.3,50.1,74.2
	c6,13.6,10.8,28.1,14.2,43.5c1.6,6.9,2.8,14.1,3.9,22.2c0.4,2.9,0.7,6,1,9.7c-0.1,0.9-0.2,1.8-0.2,2.8c-0.2,2.5-0.5,5-0.9,7.6
	c-16.6,3-33.6,4.4-50.7,4.4C418.4,616.5,342.1,582.3,296.5,525.1z M600.1,598.7c0-5.5,0-11.6-0.2-17.6c0-0.6-0.1-1.2-0.1-1.8
	c-0.9-28.3-4.1-51.8-10-73.7c-7-26.1-18.1-51.5-32.8-75.7c-28.3-46.3-69.6-84.9-119.7-111.6c-23.2-12.4-48.4-21.9-74.4-28.3
	c39.8-22.7,86.8-34.9,136.8-34.9c36.6,0,73.4,6.9,106.3,20c39.3,15.6,73.2,40.3,97.9,71.3c11.9,14.9,21.4,31.6,28.3,49.4
	c3.2,8.3,5.9,17.4,7.8,27c0.8,3.9,1.5,8.2,2.1,13c0,0.2,0,0.3-0.1,0.5c-0.6,5.1-1.6,10.5-2.9,16.4c-2.2,9.8-5.5,20-10,30.3
	c-8.2,19.1-20.3,37.5-35.9,54.5C668.8,564.1,637,585,600.1,598.7z"/>
</svg>
